<?xml version="1.0" encoding="UTF-8"?>
<svg version="1.1" xmlns="http://www.w3.org/2000/svg" width="560" height="600">
<path d="M0 0 C8.69792218 6.9170976 11.43171346 18.99984244 13.0625 29.44140625 C14.79708489 44.72450554 17.1479181 67.86523819 7.22265625 80.88671875 C6.75730469 81.39976562 6.29195312 81.9128125 5.8125 82.44140625 C5.37808594 82.95445312 4.94367188 83.4675 4.49609375 83.99609375 C-0.52134995 89.05283857 -7.36566629 91.35768271 -13.8359375 94.0234375 C-16.97569298 95.1043642 -16.97569298 95.1043642 -18.1875 96.44140625 C-13.45822398 96.72333031 -10.40267109 95.92845347 -6.125 93.94140625 C0.64324365 90.80554046 0.64324365 90.80554046 4.8125 91.44140625 C9.66978287 98.72733056 6.1579719 111.09778807 4.8125 119.44140625 C4.06555687 122.89416325 3.04303158 126.13187171 1.8125 129.44140625 C1.3896875 130.57964844 0.966875 131.71789062 0.53125 132.890625 C-2.33845931 140.40181978 -5.64814992 147.58957837 -9.32421875 154.74609375 C-11.81435829 159.61967162 -14.08395987 164.59930234 -16.34716797 169.58154297 C-22.38201772 182.64510776 -22.38201772 182.64510776 -29.6328125 185.35546875 C-35.16486745 186.8231568 -40.47545785 187.84635702 -46.19140625 188.23046875 C-48.25889744 188.33096251 -48.25889744 188.33096251 -50.1875 189.44140625 C-49.5577124 189.43093262 -48.9279248 189.42045898 -48.27905273 189.40966797 C-45.39440994 189.36780395 -42.50983134 189.34198424 -39.625 189.31640625 C-38.63435547 189.29964844 -37.64371094 189.28289062 -36.62304688 189.265625 C-31.06021509 189.22866266 -26.43906925 189.57058074 -21.1875 191.44140625 C-20.66388466 196.79033836 -22.21331553 199.73748523 -25.25 203.94140625 C-26.16546046 205.25904798 -27.08081838 206.57676095 -27.99609375 207.89453125 C-28.75575439 208.97250977 -28.75575439 208.97250977 -29.53076172 210.07226562 C-31.34961299 212.6732283 -33.13232711 215.29661656 -34.91015625 217.92578125 C-43.8732578 231.18043702 -52.88490494 244.17907843 -63.1875 256.44140625 C-63.7959375 257.17488281 -64.404375 257.90835937 -65.03125 258.6640625 C-69.053099 263.40801621 -73.40172498 267.4780496 -78.1875 271.44140625 C-79.26064453 272.36373047 -79.26064453 272.36373047 -80.35546875 273.3046875 C-93.10180479 283.95866017 -106.91802379 292.40937404 -123.26953125 295.73046875 C-125.89266097 296.36957131 -127.91434334 297.00156456 -130.1875 298.44140625 C-131.35703416 300.86523702 -131.35703416 300.86523702 -132.1875 303.44140625 C-132.8475 304.43140625 -133.5075 305.42140625 -134.1875 306.44140625 C-134.60474967 309.3127021 -134.90010878 312.11545967 -135.125 315.00390625 C-135.24294922 316.38425049 -135.24294922 316.38425049 -135.36328125 317.79248047 C-135.94325573 324.79721018 -136.42631894 331.80842509 -136.91015625 338.8203125 C-136.97404037 339.73919754 -137.0379245 340.65808258 -137.10374451 341.60481262 C-137.42683126 346.25757982 -137.74321968 350.91060418 -138.04663086 355.56469727 C-139.66865639 379.82271037 -139.66865639 379.82271037 -143 385.56640625 C-146.68023148 388.72089037 -149.44941223 389.67266508 -154.25 389.31640625 C-158.00577058 388.72823841 -159.84902783 387.52818952 -162.1875 384.44140625 C-165.7468892 377.32262786 -162.82205691 365.58513565 -161.875 357.94140625 C-161.73892334 356.80993164 -161.60284668 355.67845703 -161.46264648 354.51269531 C-159.88267129 341.59969921 -158.02991157 328.76528866 -155.60107422 315.98388672 C-152.84668297 301.38286621 -150.90254246 289.47578161 -155.91015625 275.203125 C-163.71850671 252.20789109 -160.91897053 223.59654717 -155.1875 200.44140625 C-153.01953125 199.6953125 -153.01953125 199.6953125 -150.1875 199.44140625 C-147.51171875 201.09375 -147.51171875 201.09375 -144.875 203.37890625 C-143.99199219 204.13042969 -143.10898438 204.88195312 -142.19921875 205.65625 C-141.53535156 206.24535156 -140.87148437 206.83445312 -140.1875 207.44140625 C-141.81656436 202.73431073 -144.24158381 199.96258645 -147.62890625 196.40625 C-151.01931407 192.13212686 -150.7258654 186.67893248 -150.1875 181.44140625 C-148.46954086 173.81408163 -145.53655394 166.55336779 -142.625 159.31640625 C-142.18595337 158.21425781 -142.18595337 158.21425781 -141.73803711 157.08984375 C-140.304466 153.62763428 -139.13170007 150.80870526 -136.1875 148.44140625 C-131.82043092 148.05148937 -129.88236103 147.97816556 -126.1875 150.44140625 C-125.1975 150.44140625 -124.2075 150.44140625 -123.1875 150.44140625 C-123.75339844 149.54679688 -124.31929688 148.6521875 -124.90234375 147.73046875 C-130.2166256 139.07945186 -133.32650209 132.35928454 -131.625 122.00390625 C-130.11206873 116.31805344 -127.16355266 111.47308291 -124.1875 106.44140625 C-123.41994799 105.12406183 -122.65306222 103.80632908 -121.88671875 102.48828125 C-119.76970791 98.85876197 -117.63153113 95.24221651 -115.48535156 91.62988281 C-114.20066436 89.46360439 -112.92405771 87.2927207 -111.6484375 85.12109375 C-110.84928228 83.76933968 -110.04981667 82.41776905 -109.25 81.06640625 C-108.88479248 80.44217773 -108.51958496 79.81794922 -108.14331055 79.17480469 C-104.46963901 73.00255617 -104.46963901 73.00255617 -102.1875 71.44140625 C-98.40301882 71.57217084 -96.4815001 73.7736617 -93.9375 76.37890625 C-93.23109375 77.08917969 -92.5246875 77.79945313 -91.796875 78.53125 C-90.1875 80.44140625 -90.1875 80.44140625 -90.1875 82.44140625 C-88.7025 82.93640625 -88.7025 82.93640625 -87.1875 83.44140625 C-85.5 85.50390625 -85.5 85.50390625 -84.1875 87.44140625 C-85.80227248 82.0588313 -87.71152946 77.33434671 -90.375 72.37890625 C-92.9935125 67.19438274 -94.31876672 64.19201208 -93.1875 58.44140625 C-90.08941297 52.094389 -85.15377517 46.9740267 -80.39453125 41.8359375 C-78.50896559 39.7901822 -76.71911422 37.70169078 -74.9375 35.56640625 C-66.24406507 25.651083 -56.25233824 17.54843697 -45.1875 10.44140625 C-44.34703125 9.88839844 -43.5065625 9.33539063 -42.640625 8.765625 C-30.89539137 1.33849197 -13.57810805 -7.85668752 0 0 Z M-40.1875 56.44140625 C-46.34242483 62.82051708 -51.0703027 70.00068232 -55.86816406 77.40722656 C-57.14084808 79.36947734 -58.42443392 81.32413389 -59.7109375 83.27734375 C-75.87501658 107.65415706 -75.87501658 107.65415706 -89.69140625 133.37890625 C-91.34270272 136.75910581 -93.20864938 139.95457602 -95.125 143.19140625 C-99.47024488 150.59709635 -102.82007989 158.37557169 -106.22167969 166.24707031 C-107.70426504 169.61549225 -109.29210001 172.93180788 -110.875 176.25390625 C-113.99211364 182.86388805 -116.69601404 189.57213581 -119.1875 196.44140625 C-119.41260254 197.06176758 -119.63770508 197.68212891 -119.86962891 198.32128906 C-121.40698733 202.57615768 -122.90536028 206.84361155 -124.3828125 211.11962891 C-124.92023427 212.67026028 -125.4619202 214.21942018 -126.0078125 215.76708984 C-131.26575971 230.69634298 -135.40027982 245.87533694 -139.34765625 261.19189453 C-140.02128428 263.79828671 -140.70760958 266.40025152 -141.40625 269 C-144.36733157 280.28315356 -146.457267 291.73790709 -148.58496094 303.20214844 C-149.14504375 306.21316088 -149.71566794 309.22196842 -150.2890625 312.23046875 C-158.68260967 346.74083444 -158.68260967 346.74083444 -155.1875 380.44140625 C-151.77093976 380.60817907 -151.77093976 380.60817907 -148.1875 380.44140625 C-145.66612526 377.92003151 -145.77735497 376.68866852 -145.40625 373.18359375 C-145.28765625 372.09554443 -145.1690625 371.00749512 -145.046875 369.88647461 C-144.92828125 368.70835205 -144.8096875 367.53022949 -144.6875 366.31640625 C-144.55859375 365.10025635 -144.4296875 363.88410645 -144.296875 362.63110352 C-143.39011022 353.91199346 -142.64803942 345.18421581 -141.95483398 336.44604492 C-137.84074754 285.74191747 -127.75882906 234.59980464 -108.05419922 187.53955078 C-106.82822965 184.5716684 -105.69429309 181.57126265 -104.5625 178.56640625 C-100.32741245 167.51282774 -95.51072792 156.8340609 -90.12597656 146.29492188 C-89.13907354 144.34576274 -88.17291664 142.38735357 -87.2109375 140.42578125 C-83.65917233 133.19933163 -79.96289319 126.14942939 -75.83203125 119.23046875 C-74.23438947 116.520929 -72.73279283 113.77764809 -71.25 111.00390625 C-68.16974805 105.31354607 -64.7866439 99.83493329 -61.36621094 94.34423828 C-59.58084453 91.46206226 -57.82042671 88.5648057 -56.05737305 85.66894531 C-51.97872421 78.97014522 -47.87211755 72.296775 -43.625 65.703125 C-43.150625 64.95675781 -42.67625 64.21039063 -42.1875 63.44140625 C-41.61 62.56097656 -41.0325 61.68054688 -40.4375 60.7734375 C-40.025 60.00386719 -39.6125 59.23429687 -39.1875 58.44140625 C-39.6825 57.45140625 -39.6825 57.45140625 -40.1875 56.44140625 Z " fill="#000000" transform="translate(386.1875,103.55859375)"/>
<path d="M0 0 C5.37899513 0.4352299 9.23046077 4.31567949 13.31591797 7.52050781 C16.45137728 9.92596601 19.70187698 12.16972169 22.9375 14.4375 C23.64616211 14.93894531 24.35482422 15.44039063 25.08496094 15.95703125 C29.12839332 18.81541183 33.19590867 21.63303681 37.29296875 24.4140625 C38.18056885 25.02169434 39.06816895 25.62932617 39.98266602 26.25537109 C41.69450444 27.42612116 43.41212729 28.58847579 45.13647461 29.74072266 C51.23087117 33.92585953 57.78103487 38.55410654 59.89453125 45.9375 C59.85392578 47.360625 59.85392578 47.360625 59.8125 48.8125 C59.81894531 49.76125 59.82539063 50.71 59.83203125 51.6875 C57.65588241 59.86082899 51.13175015 64.67478794 44.4375 69.25 C43.65117187 69.80131592 42.86484375 70.35263184 42.0546875 70.9206543 C40.46589137 72.0323272 38.87332314 73.13863036 37.27685547 74.23925781 C35.17361123 75.69253959 33.08613949 77.16527517 31.00390625 78.6484375 C22.29236056 84.8125 22.29236056 84.8125 20 84.8125 C20 85.4725 20 86.1325 20 86.8125 C17.76953125 88.43359375 17.76953125 88.43359375 14.8125 90.25 C13.84957031 90.84683594 12.88664062 91.44367188 11.89453125 92.05859375 C10.93933594 92.63738281 9.98414063 93.21617187 9 93.8125 C8.13375 94.36679687 7.2675 94.92109375 6.375 95.4921875 C3.30330383 97.19980807 0.46830497 97.4724701 -3 97.8125 C-6.05301275 89.43488763 -8.17365173 80.74462276 -4.375 72.25 C-0.64819639 66.29776223 5.54364739 62.77784594 11.28027344 58.96728516 C13.70112118 57.3417017 16.04689611 55.63031642 18.375 53.875 C19.08398438 53.35035156 19.79296875 52.82570313 20.5234375 52.28515625 C21.01070313 51.79917969 21.49796875 51.31320312 22 50.8125 C22 49.8225 22 48.8325 22 47.8125 C20.64158641 46.39379902 20.64158641 46.39379902 18.78125 45.140625 C18.0996582 44.64473877 17.41806641 44.14885254 16.71582031 43.63793945 C15.98459961 43.11804443 15.25337891 42.59814941 14.5 42.0625 C13.02470779 40.97967958 11.55073424 39.89506012 10.078125 38.80859375 C9.36978516 38.28894043 8.66144531 37.76928711 7.93164062 37.23388672 C1.29781534 32.35242428 -4.06002913 28.14583398 -6 19.8125 C-7.7151277 2.08951375 -7.7151277 2.08951375 0 0 Z " fill="#000000" transform="translate(285,431.1875)"/>
<path d="M0 0 C3.49449081 4.66599633 4.71427166 10.28582669 4 16 C2.81086992 20.71634702 1.52191433 25.47808567 -2 29 C-2.66 29 -3.32 29 -4 29 C-4 29.66 -4 30.32 -4 31 C-5.71240234 32.42041016 -5.71240234 32.42041016 -8.0859375 34.0390625 C-8.93414062 34.61914062 -9.78234375 35.19921875 -10.65625 35.796875 C-11.5534375 36.40015625 -12.450625 37.0034375 -13.375 37.625 C-14.26445312 38.23601562 -15.15390625 38.84703125 -16.0703125 39.4765625 C-22.73430525 44 -22.73430525 44 -25 44 C-25.31878533 46.3607197 -25.31878533 46.3607197 -25 49 C-23.43176018 50.84890328 -23.43176018 50.84890328 -21.1875 52.3125 C-20.37152344 52.90546875 -19.55554688 53.4984375 -18.71484375 54.109375 C-17.81894531 54.73328125 -16.92304688 55.3571875 -16 56 C0.91858199 67.87753511 0.91858199 67.87753511 3 77 C3.4922218 83.22199124 3.97472066 89.33580586 1 95 C-1.5625 96.125 -1.5625 96.125 -5 96 C-12.38036333 93.11390461 -18.69590072 87.67723495 -25 83 C-27.3675855 81.28125324 -29.74506743 79.57659584 -32.125 77.875 C-32.71643799 77.45065674 -33.30787598 77.02631348 -33.91723633 76.58911133 C-38.03786774 73.64613081 -42.2293588 70.84200104 -46.5234375 68.15625 C-47.01070312 67.7746875 -47.49796875 67.393125 -48 67 C-48 66.34 -48 65.68 -48 65 C-49.0209375 64.690625 -49.0209375 64.690625 -50.0625 64.375 C-55.3973452 61.87783842 -59.66060758 58.58904631 -62 53.0625 C-63.21567928 49.06595437 -63.18190332 46.06279265 -62 42 C-58.20278926 35.71392441 -53.51550092 32.01488787 -47.5625 27.8125 C-46.72912109 27.20986328 -45.89574219 26.60722656 -45.03710938 25.98632812 C-42.70370382 24.30590721 -40.35660431 22.64767715 -38 21 C-37.38495605 20.56606934 -36.76991211 20.13213867 -36.13623047 19.68505859 C-32.24732143 17 -32.24732143 17 -30 17 C-30 16.34 -30 15.68 -30 15 C-27.73983094 13.32446134 -25.48537821 11.77285188 -23.125 10.25 C-22.10140381 9.58327271 -22.10140381 9.58327271 -21.05712891 8.90307617 C-19.68175599 8.01094677 -18.30400154 7.12247759 -16.92382812 6.23779297 C-15.25669273 5.16515636 -13.60355323 4.0708258 -11.953125 2.97265625 C-11.10234375 2.42480469 -10.2515625 1.87695312 -9.375 1.3125 C-8.27285156 0.59513672 -8.27285156 0.59513672 -7.1484375 -0.13671875 C-4.30478025 -1.27935194 -2.84914491 -1.08427096 0 0 Z " fill="#000000" transform="translate(195,316)"/>
</svg>
